<?xml version="1.0" standalone="no"?>
<!DOCTYPE svg PUBLIC "-//W3C//DTD SVG 20010904//EN"
 "http://www.w3.org/TR/2001/REC-SVG-20010904/DTD/svg10.dtd">
<svg version="1.0" xmlns="http://www.w3.org/2000/svg"
 width="384.000000pt" height="384.000000pt" viewBox="0 0 384.000000 384.000000"
 preserveAspectRatio="xMidYMid meet">
<metadata>
Created by potrace 1.14, written by Peter Selinger 2001-2017
</metadata>
<g transform="translate(0.000000,384.000000) scale(0.100000,-0.100000)"
fill="#000000" stroke="none">
<path d="M1873 3778 c0 -51 -114 -305 -202 -453 -17 -27 -43 -72 -58 -99 -15
-27 -33 -56 -38 -65 -6 -9 -26 -41 -45 -71 -19 -30 -92 -142 -162 -248 -71
-107 -128 -204 -128 -216 0 -56 71 -103 208 -140 50 -13 117 -28 148 -32 36
-4 52 -10 43 -15 -16 -8 -210 -67 -243 -73 -12 -2 -39 -9 -61 -15 -22 -5 -96
-19 -164 -30 -68 -12 -129 -26 -137 -32 -7 -6 -35 -56 -63 -112 -51 -105 -79
-213 -68 -260 22 -86 176 -175 436 -252 64 -19 109 -35 101 -35 -8 -1 -24 -3
-35 -5 -11 -2 -54 -7 -95 -11 -41 -3 -83 -8 -93 -10 -22 -4 -174 -13 -272 -16
-82 -3 -85 -6 -72 -92 18 -124 103 -327 167 -399 33 -38 115 -79 206 -102 129
-33 263 -43 512 -41 133 2 241 2 240 0 -6 -5 -324 -63 -408 -74 -47 -6 -96
-13 -109 -15 -13 -2 -61 -7 -107 -11 -46 -4 -84 -10 -84 -15 0 -15 206 -108
295 -133 494 -139 1020 85 1221 520 46 98 53 153 25 178 -36 33 -118 32 -266
-3 -163 -38 -471 -84 -455 -68 3 3 52 23 110 45 186 70 390 165 588 275 85 48
93 54 89 79 -2 15 0 25 5 22 5 -3 7 5 4 18 -3 12 -8 54 -11 91 -13 132 -57
250 -113 300 -20 19 -88 24 -157 12 -25 -4 -317 -6 -392 -2 -39 2 -26 14 59
58 82 43 255 155 284 183 8 9 25 22 37 31 20 14 20 18 9 60 -41 152 -208 392
-266 380 -72 -15 -499 -29 -563 -18 -31 5 -29 7 70 67 138 82 222 151 280 227
l27 36 -72 124 c-95 166 -185 353 -200 417 -12 48 -25 69 -25 40z"/>
<path d="M1669 563 c-13 -16 -12 -17 4 -4 16 13 21 21 13 21 -2 0 -10 -8 -17
-17z"/>
<path d="M1975 561 c-3 -5 -2 -12 3 -15 5 -3 9 1 9 9 0 17 -3 19 -12 6z"/>
<path d="M2013 555 c0 -8 4 -12 9 -9 5 3 6 10 3 15 -9 13 -12 11 -12 -6z"/>
<path d="M2055 561 c-3 -5 -2 -12 3 -15 5 -3 9 1 9 9 0 17 -3 19 -12 6z"/>
<path d="M2095 560 c-3 -5 -1 -10 4 -10 6 0 11 5 11 10 0 6 -2 10 -4 10 -3 0
-8 -4 -11 -10z"/>
<path d="M1790 542 c0 -5 7 -9 15 -9 8 0 12 4 9 9 -3 4 -9 8 -15 8 -5 0 -9 -4
-9 -8z"/>
<path d="M1859 543 c-5 -29 -5 -53 -1 -48 7 6 12 55 6 55 -2 0 -5 -3 -5 -7z"/>
<path d="M1885 539 c-4 -6 -5 -12 -2 -15 2 -3 7 2 10 11 7 17 1 20 -8 4z"/>
<path d="M1906 524 c-6 -15 -4 -15 11 -3 10 7 20 15 22 16 2 2 -3 3 -11 3 -9
0 -19 -7 -22 -16z"/>
<path d="M1954 529 c-3 -6 -2 -15 3 -20 5 -5 9 -1 9 11 0 23 -2 24 -12 9z"/>
<path d="M2030 537 c0 -2 6 -10 14 -16 11 -9 16 -9 22 1 4 7 4 10 -1 6 -4 -4
-14 -3 -22 3 -7 6 -13 9 -13 6z"/>
<path d="M1746 518 c3 -5 10 -6 15 -3 13 9 11 12 -6 12 -8 0 -12 -4 -9 -9z"/>
<path d="M1990 521 c0 -6 4 -13 10 -16 6 -3 7 1 4 9 -7 18 -14 21 -14 7z"/>
<path d="M2086 518 c3 -5 10 -6 15 -3 13 9 11 12 -6 12 -8 0 -12 -4 -9 -9z"/>
<path d="M1775 511 c-3 -5 -2 -12 3 -15 5 -3 9 1 9 9 0 17 -3 19 -12 6z"/>
<path d="M1695 500 c-3 -5 -1 -10 4 -10 6 0 11 5 11 10 0 6 -2 10 -4 10 -3 0
-8 -4 -11 -10z"/>
<path d="M2116 498 c3 -4 11 -5 19 -1 21 7 19 12 -4 10 -11 0 -18 -5 -15 -9z"/>
</g>
</svg>
